<mxfile host="Electron" modified="2024-01-01T21:26:19.918Z" agent="Mozilla/5.0 (Windows NT 10.0; Win64; x64) AppleWebKit/537.36 (KHTML, like Gecko) draw.io/21.6.8 Chrome/114.0.5735.289 Electron/25.5.0 Safari/537.36" etag="yJ_7i14s5_QB87HvYm6N" version="21.6.8" type="device">
  <diagram name="Page-1" id="sBktOsGNuqBVWPzOUIQf">
    <mxGraphModel dx="1050" dy="1429" grid="1" gridSize="10" guides="1" tooltips="1" connect="1" arrows="1" fold="1" page="0" pageScale="1" pageWidth="850" pageHeight="1100" math="0" shadow="0">
      <root>
        <mxCell id="0" />
        <mxCell id="1" parent="0" />
        <mxCell id="1HIPmZBMqJ_y4jvaVUKr-1" value="" style="sketch=0;outlineConnect=0;fontColor=#232F3E;gradientColor=none;fillColor=#232F3D;strokeColor=none;dashed=0;verticalLabelPosition=bottom;verticalAlign=top;align=center;html=1;fontSize=12;fontStyle=0;aspect=fixed;pointerEvents=1;shape=mxgraph.aws4.client;" vertex="1" parent="1">
          <mxGeometry x="740.98" y="-402" width="78" height="76" as="geometry" />
        </mxCell>
        <mxCell id="1HIPmZBMqJ_y4jvaVUKr-2" value="" style="rounded=1;arcSize=5;strokeColor=none;fillColor=#DBDBDB;gradientColor=none;glass=0;shadow=0;container=0;perimeterSpacing=0;" vertex="1" parent="1">
          <mxGeometry x="320" y="160" width="280" height="309.5" as="geometry" />
        </mxCell>
        <mxCell id="1HIPmZBMqJ_y4jvaVUKr-4" value="&lt;span style=&quot;font-size: 14px;&quot;&gt;&lt;b&gt;Server&lt;br&gt;(8.8.8.8)&lt;br&gt;&lt;/b&gt;&lt;/span&gt;" style="text;html=1;strokeColor=none;fillColor=none;align=center;verticalAlign=middle;whiteSpace=wrap;rounded=0;container=0;strokeWidth=1;" vertex="1" parent="1">
          <mxGeometry x="399.99" y="170" width="120.01" height="20" as="geometry" />
        </mxCell>
        <mxCell id="1HIPmZBMqJ_y4jvaVUKr-7" value="" style="sketch=0;pointerEvents=1;shadow=0;dashed=0;html=1;strokeColor=none;fillColor=#505050;labelPosition=center;verticalLabelPosition=bottom;verticalAlign=top;outlineConnect=0;align=center;shape=mxgraph.office.servers.web_server;" vertex="1" parent="1">
          <mxGeometry x="352" y="246" width="58" height="57" as="geometry" />
        </mxCell>
        <mxCell id="1HIPmZBMqJ_y4jvaVUKr-8" value="" style="outlineConnect=0;dashed=0;verticalLabelPosition=bottom;verticalAlign=top;align=center;html=1;shape=mxgraph.aws3.traditional_server;fillColor=#7D7C7C;gradientColor=none;" vertex="1" parent="1">
          <mxGeometry x="532" y="240" width="40" height="63" as="geometry" />
        </mxCell>
        <mxCell id="1HIPmZBMqJ_y4jvaVUKr-9" value="" style="sketch=0;pointerEvents=1;shadow=0;dashed=0;html=1;strokeColor=none;fillColor=#505050;labelPosition=center;verticalLabelPosition=bottom;verticalAlign=top;outlineConnect=0;align=center;shape=mxgraph.office.concepts.folder_open;" vertex="1" parent="1">
          <mxGeometry x="354" y="370" width="56" height="43" as="geometry" />
        </mxCell>
        <mxCell id="1HIPmZBMqJ_y4jvaVUKr-10" value="" style="sketch=0;shadow=0;dashed=0;html=1;strokeColor=none;fillColor=#505050;labelPosition=center;verticalLabelPosition=bottom;verticalAlign=top;outlineConnect=0;align=center;shape=mxgraph.office.databases.database_mini_3;" vertex="1" parent="1">
          <mxGeometry x="528" y="370" width="48" height="50" as="geometry" />
        </mxCell>
        <mxCell id="1HIPmZBMqJ_y4jvaVUKr-11" value="" style="endArrow=classic;startArrow=classic;html=1;rounded=0;" edge="1" parent="1">
          <mxGeometry width="50" height="50" relative="1" as="geometry">
            <mxPoint x="520" y="272" as="sourcePoint" />
            <mxPoint x="420" y="270" as="targetPoint" />
          </mxGeometry>
        </mxCell>
        <mxCell id="1HIPmZBMqJ_y4jvaVUKr-12" value="" style="endArrow=classic;startArrow=classic;html=1;rounded=0;" edge="1" parent="1">
          <mxGeometry width="50" height="50" relative="1" as="geometry">
            <mxPoint x="520" y="300" as="sourcePoint" />
            <mxPoint x="430" y="360" as="targetPoint" />
          </mxGeometry>
        </mxCell>
        <mxCell id="1HIPmZBMqJ_y4jvaVUKr-14" value="" style="endArrow=classic;startArrow=classic;html=1;rounded=0;" edge="1" parent="1">
          <mxGeometry width="50" height="50" relative="1" as="geometry">
            <mxPoint x="552" y="320" as="sourcePoint" />
            <mxPoint x="551.5" y="360" as="targetPoint" />
          </mxGeometry>
        </mxCell>
        <mxCell id="1HIPmZBMqJ_y4jvaVUKr-15" value="&lt;span style=&quot;font-size: 10px;&quot;&gt;App Server&lt;/span&gt;" style="text;html=1;strokeColor=none;fillColor=none;align=center;verticalAlign=middle;whiteSpace=wrap;rounded=0;" vertex="1" parent="1">
          <mxGeometry x="522" y="309.75" width="60" height="10" as="geometry" />
        </mxCell>
        <mxCell id="1HIPmZBMqJ_y4jvaVUKr-17" value="" style="endArrow=classic;startArrow=classic;html=1;rounded=0;" edge="1" parent="1">
          <mxGeometry width="50" height="50" relative="1" as="geometry">
            <mxPoint x="380" y="320" as="sourcePoint" />
            <mxPoint x="380.5" y="359.75" as="targetPoint" />
          </mxGeometry>
        </mxCell>
        <mxCell id="1HIPmZBMqJ_y4jvaVUKr-18" value="&lt;span style=&quot;font-size: 10px;&quot;&gt;Web Server&lt;/span&gt;" style="text;html=1;strokeColor=none;fillColor=none;align=center;verticalAlign=middle;whiteSpace=wrap;rounded=0;" vertex="1" parent="1">
          <mxGeometry x="350" y="307" width="60" height="10" as="geometry" />
        </mxCell>
        <mxCell id="1HIPmZBMqJ_y4jvaVUKr-19" value="&lt;span style=&quot;font-size: 10px;&quot;&gt;Code Base&lt;/span&gt;" style="text;html=1;strokeColor=none;fillColor=none;align=center;verticalAlign=middle;whiteSpace=wrap;rounded=0;" vertex="1" parent="1">
          <mxGeometry x="350" y="420" width="60" height="10" as="geometry" />
        </mxCell>
        <mxCell id="1HIPmZBMqJ_y4jvaVUKr-20" value="&lt;span style=&quot;font-size: 10px;&quot;&gt;Database&lt;/span&gt;" style="text;html=1;strokeColor=none;fillColor=none;align=center;verticalAlign=middle;whiteSpace=wrap;rounded=0;" vertex="1" parent="1">
          <mxGeometry x="522" y="420" width="60" height="10" as="geometry" />
        </mxCell>
        <mxCell id="1HIPmZBMqJ_y4jvaVUKr-21" value="&lt;span style=&quot;font-size: 10px;&quot;&gt;&lt;font color=&quot;#006600&quot;&gt;primary&lt;/font&gt;&lt;/span&gt;" style="text;html=1;align=center;verticalAlign=middle;whiteSpace=wrap;rounded=0;strokeWidth=0;" vertex="1" parent="1">
          <mxGeometry x="522" y="430" width="60" height="10" as="geometry" />
        </mxCell>
        <mxCell id="1HIPmZBMqJ_y4jvaVUKr-23" value="" style="sketch=0;aspect=fixed;pointerEvents=1;shadow=0;dashed=0;html=1;strokeColor=none;labelPosition=center;verticalLabelPosition=bottom;verticalAlign=top;align=center;fillColor=#00188D;shape=mxgraph.mscae.enterprise.performance_monitor" vertex="1" parent="1">
          <mxGeometry x="417.5" y="520" width="85" height="61.2" as="geometry" />
        </mxCell>
        <mxCell id="1HIPmZBMqJ_y4jvaVUKr-25" value="" style="endArrow=none;html=1;rounded=0;" edge="1" parent="1" source="1HIPmZBMqJ_y4jvaVUKr-23" target="1HIPmZBMqJ_y4jvaVUKr-2">
          <mxGeometry width="50" height="50" relative="1" as="geometry">
            <mxPoint x="120" y="560" as="sourcePoint" />
            <mxPoint x="170" y="510" as="targetPoint" />
          </mxGeometry>
        </mxCell>
        <mxCell id="1HIPmZBMqJ_y4jvaVUKr-26" value="&lt;span style=&quot;font-size: 10px;&quot;&gt;Monitoring&lt;/span&gt;" style="text;html=1;strokeColor=none;fillColor=none;align=center;verticalAlign=middle;whiteSpace=wrap;rounded=0;" vertex="1" parent="1">
          <mxGeometry x="430" y="590" width="60" height="10" as="geometry" />
        </mxCell>
        <mxCell id="1HIPmZBMqJ_y4jvaVUKr-27" value="" style="sketch=0;outlineConnect=0;fontColor=#232F3E;gradientColor=none;fillColor=#232F3D;strokeColor=none;dashed=0;verticalLabelPosition=bottom;verticalAlign=top;align=center;html=1;fontSize=12;fontStyle=0;aspect=fixed;pointerEvents=1;shape=mxgraph.aws4.generic_firewall;" vertex="1" parent="1">
          <mxGeometry x="432" y="110" width="59.09" height="50" as="geometry" />
        </mxCell>
        <mxCell id="1HIPmZBMqJ_y4jvaVUKr-28" value="&lt;span style=&quot;font-size: 10px;&quot;&gt;Client&lt;/span&gt;" style="text;html=1;strokeColor=none;fillColor=none;align=center;verticalAlign=middle;whiteSpace=wrap;rounded=0;" vertex="1" parent="1">
          <mxGeometry x="748.5500000000001" y="-382" width="60" height="10" as="geometry" />
        </mxCell>
        <mxCell id="1HIPmZBMqJ_y4jvaVUKr-86" value="" style="rounded=1;arcSize=5;strokeColor=none;fillColor=#DBDBDB;gradientColor=none;glass=0;shadow=0;container=0;perimeterSpacing=0;" vertex="1" parent="1">
          <mxGeometry x="640" y="160" width="280" height="309.5" as="geometry" />
        </mxCell>
        <mxCell id="1HIPmZBMqJ_y4jvaVUKr-87" value="&lt;span style=&quot;font-size: 14px;&quot;&gt;&lt;b&gt;Server&lt;br&gt;(8.8.8.8)&lt;br&gt;&lt;/b&gt;&lt;/span&gt;" style="text;html=1;strokeColor=none;fillColor=none;align=center;verticalAlign=middle;whiteSpace=wrap;rounded=0;container=0;strokeWidth=1;" vertex="1" parent="1">
          <mxGeometry x="719.99" y="170" width="120.01" height="20" as="geometry" />
        </mxCell>
        <mxCell id="1HIPmZBMqJ_y4jvaVUKr-88" value="" style="sketch=0;pointerEvents=1;shadow=0;dashed=0;html=1;strokeColor=none;fillColor=#505050;labelPosition=center;verticalLabelPosition=bottom;verticalAlign=top;outlineConnect=0;align=center;shape=mxgraph.office.servers.web_server;" vertex="1" parent="1">
          <mxGeometry x="672" y="246" width="58" height="57" as="geometry" />
        </mxCell>
        <mxCell id="1HIPmZBMqJ_y4jvaVUKr-89" value="" style="outlineConnect=0;dashed=0;verticalLabelPosition=bottom;verticalAlign=top;align=center;html=1;shape=mxgraph.aws3.traditional_server;fillColor=#7D7C7C;gradientColor=none;" vertex="1" parent="1">
          <mxGeometry x="852" y="240" width="40" height="63" as="geometry" />
        </mxCell>
        <mxCell id="1HIPmZBMqJ_y4jvaVUKr-90" value="" style="sketch=0;pointerEvents=1;shadow=0;dashed=0;html=1;strokeColor=none;fillColor=#505050;labelPosition=center;verticalLabelPosition=bottom;verticalAlign=top;outlineConnect=0;align=center;shape=mxgraph.office.concepts.folder_open;" vertex="1" parent="1">
          <mxGeometry x="674" y="370" width="56" height="43" as="geometry" />
        </mxCell>
        <mxCell id="1HIPmZBMqJ_y4jvaVUKr-91" value="" style="sketch=0;shadow=0;dashed=0;html=1;strokeColor=none;fillColor=#505050;labelPosition=center;verticalLabelPosition=bottom;verticalAlign=top;outlineConnect=0;align=center;shape=mxgraph.office.databases.database_mini_3;" vertex="1" parent="1">
          <mxGeometry x="848" y="370" width="48" height="50" as="geometry" />
        </mxCell>
        <mxCell id="1HIPmZBMqJ_y4jvaVUKr-92" value="" style="endArrow=classic;startArrow=classic;html=1;rounded=0;" edge="1" parent="1">
          <mxGeometry width="50" height="50" relative="1" as="geometry">
            <mxPoint x="840" y="272" as="sourcePoint" />
            <mxPoint x="740" y="270" as="targetPoint" />
          </mxGeometry>
        </mxCell>
        <mxCell id="1HIPmZBMqJ_y4jvaVUKr-93" value="" style="endArrow=classic;startArrow=classic;html=1;rounded=0;" edge="1" parent="1">
          <mxGeometry width="50" height="50" relative="1" as="geometry">
            <mxPoint x="840" y="300" as="sourcePoint" />
            <mxPoint x="750" y="360" as="targetPoint" />
          </mxGeometry>
        </mxCell>
        <mxCell id="1HIPmZBMqJ_y4jvaVUKr-94" value="" style="endArrow=classic;startArrow=classic;html=1;rounded=0;" edge="1" parent="1">
          <mxGeometry width="50" height="50" relative="1" as="geometry">
            <mxPoint x="872" y="320" as="sourcePoint" />
            <mxPoint x="871.5" y="360" as="targetPoint" />
          </mxGeometry>
        </mxCell>
        <mxCell id="1HIPmZBMqJ_y4jvaVUKr-95" value="&lt;span style=&quot;font-size: 10px;&quot;&gt;App Server&lt;/span&gt;" style="text;html=1;strokeColor=none;fillColor=none;align=center;verticalAlign=middle;whiteSpace=wrap;rounded=0;" vertex="1" parent="1">
          <mxGeometry x="842" y="309.75" width="60" height="10" as="geometry" />
        </mxCell>
        <mxCell id="1HIPmZBMqJ_y4jvaVUKr-96" value="" style="endArrow=classic;startArrow=classic;html=1;rounded=0;" edge="1" parent="1">
          <mxGeometry width="50" height="50" relative="1" as="geometry">
            <mxPoint x="700" y="320" as="sourcePoint" />
            <mxPoint x="700.5" y="359.75" as="targetPoint" />
          </mxGeometry>
        </mxCell>
        <mxCell id="1HIPmZBMqJ_y4jvaVUKr-97" value="&lt;span style=&quot;font-size: 10px;&quot;&gt;Web Server&lt;/span&gt;" style="text;html=1;strokeColor=none;fillColor=none;align=center;verticalAlign=middle;whiteSpace=wrap;rounded=0;" vertex="1" parent="1">
          <mxGeometry x="670" y="307" width="60" height="10" as="geometry" />
        </mxCell>
        <mxCell id="1HIPmZBMqJ_y4jvaVUKr-98" value="&lt;span style=&quot;font-size: 10px;&quot;&gt;Code Base&lt;/span&gt;" style="text;html=1;strokeColor=none;fillColor=none;align=center;verticalAlign=middle;whiteSpace=wrap;rounded=0;" vertex="1" parent="1">
          <mxGeometry x="670" y="420" width="60" height="10" as="geometry" />
        </mxCell>
        <mxCell id="1HIPmZBMqJ_y4jvaVUKr-99" value="&lt;span style=&quot;font-size: 10px;&quot;&gt;Database&lt;/span&gt;" style="text;html=1;strokeColor=none;fillColor=none;align=center;verticalAlign=middle;whiteSpace=wrap;rounded=0;" vertex="1" parent="1">
          <mxGeometry x="842" y="420" width="60" height="10" as="geometry" />
        </mxCell>
        <mxCell id="1HIPmZBMqJ_y4jvaVUKr-100" value="&lt;span style=&quot;font-size: 10px;&quot;&gt;&lt;font color=&quot;#006600&quot;&gt;replica&lt;/font&gt;&lt;/span&gt;" style="text;html=1;align=center;verticalAlign=middle;whiteSpace=wrap;rounded=0;strokeWidth=0;" vertex="1" parent="1">
          <mxGeometry x="842" y="430" width="60" height="10" as="geometry" />
        </mxCell>
        <mxCell id="1HIPmZBMqJ_y4jvaVUKr-101" value="" style="sketch=0;aspect=fixed;pointerEvents=1;shadow=0;dashed=0;html=1;strokeColor=none;labelPosition=center;verticalLabelPosition=bottom;verticalAlign=top;align=center;fillColor=#00188D;shape=mxgraph.mscae.enterprise.performance_monitor" vertex="1" parent="1">
          <mxGeometry x="737.5" y="520" width="85" height="61.2" as="geometry" />
        </mxCell>
        <mxCell id="1HIPmZBMqJ_y4jvaVUKr-102" value="" style="endArrow=none;html=1;rounded=0;" edge="1" parent="1" source="1HIPmZBMqJ_y4jvaVUKr-101" target="1HIPmZBMqJ_y4jvaVUKr-86">
          <mxGeometry width="50" height="50" relative="1" as="geometry">
            <mxPoint x="440" y="560" as="sourcePoint" />
            <mxPoint x="490" y="510" as="targetPoint" />
          </mxGeometry>
        </mxCell>
        <mxCell id="1HIPmZBMqJ_y4jvaVUKr-103" value="&lt;span style=&quot;font-size: 10px;&quot;&gt;Monitoring&lt;/span&gt;" style="text;html=1;strokeColor=none;fillColor=none;align=center;verticalAlign=middle;whiteSpace=wrap;rounded=0;" vertex="1" parent="1">
          <mxGeometry x="750" y="590" width="60" height="10" as="geometry" />
        </mxCell>
        <mxCell id="1HIPmZBMqJ_y4jvaVUKr-104" value="" style="sketch=0;outlineConnect=0;fontColor=#232F3E;gradientColor=none;fillColor=#232F3D;strokeColor=none;dashed=0;verticalLabelPosition=bottom;verticalAlign=top;align=center;html=1;fontSize=12;fontStyle=0;aspect=fixed;pointerEvents=1;shape=mxgraph.aws4.generic_firewall;" vertex="1" parent="1">
          <mxGeometry x="752" y="110" width="59.09" height="50" as="geometry" />
        </mxCell>
        <mxCell id="1HIPmZBMqJ_y4jvaVUKr-105" value="" style="rounded=1;arcSize=5;strokeColor=none;fillColor=#DBDBDB;gradientColor=none;glass=0;shadow=0;container=0;perimeterSpacing=0;" vertex="1" parent="1">
          <mxGeometry x="960" y="160" width="280" height="309.5" as="geometry" />
        </mxCell>
        <mxCell id="1HIPmZBMqJ_y4jvaVUKr-106" value="&lt;span style=&quot;font-size: 14px;&quot;&gt;&lt;b&gt;Server&lt;br&gt;(8.8.8.8)&lt;br&gt;&lt;/b&gt;&lt;/span&gt;" style="text;html=1;strokeColor=none;fillColor=none;align=center;verticalAlign=middle;whiteSpace=wrap;rounded=0;container=0;strokeWidth=1;" vertex="1" parent="1">
          <mxGeometry x="1039.99" y="170" width="120.01" height="20" as="geometry" />
        </mxCell>
        <mxCell id="1HIPmZBMqJ_y4jvaVUKr-107" value="" style="sketch=0;pointerEvents=1;shadow=0;dashed=0;html=1;strokeColor=none;fillColor=#505050;labelPosition=center;verticalLabelPosition=bottom;verticalAlign=top;outlineConnect=0;align=center;shape=mxgraph.office.servers.web_server;" vertex="1" parent="1">
          <mxGeometry x="992" y="246" width="58" height="57" as="geometry" />
        </mxCell>
        <mxCell id="1HIPmZBMqJ_y4jvaVUKr-108" value="" style="outlineConnect=0;dashed=0;verticalLabelPosition=bottom;verticalAlign=top;align=center;html=1;shape=mxgraph.aws3.traditional_server;fillColor=#7D7C7C;gradientColor=none;" vertex="1" parent="1">
          <mxGeometry x="1172" y="240" width="40" height="63" as="geometry" />
        </mxCell>
        <mxCell id="1HIPmZBMqJ_y4jvaVUKr-109" value="" style="sketch=0;pointerEvents=1;shadow=0;dashed=0;html=1;strokeColor=none;fillColor=#505050;labelPosition=center;verticalLabelPosition=bottom;verticalAlign=top;outlineConnect=0;align=center;shape=mxgraph.office.concepts.folder_open;" vertex="1" parent="1">
          <mxGeometry x="994" y="370" width="56" height="43" as="geometry" />
        </mxCell>
        <mxCell id="1HIPmZBMqJ_y4jvaVUKr-110" value="" style="sketch=0;shadow=0;dashed=0;html=1;strokeColor=none;fillColor=#505050;labelPosition=center;verticalLabelPosition=bottom;verticalAlign=top;outlineConnect=0;align=center;shape=mxgraph.office.databases.database_mini_3;" vertex="1" parent="1">
          <mxGeometry x="1168" y="370" width="48" height="50" as="geometry" />
        </mxCell>
        <mxCell id="1HIPmZBMqJ_y4jvaVUKr-111" value="" style="endArrow=classic;startArrow=classic;html=1;rounded=0;" edge="1" parent="1">
          <mxGeometry width="50" height="50" relative="1" as="geometry">
            <mxPoint x="1160" y="272" as="sourcePoint" />
            <mxPoint x="1060" y="270" as="targetPoint" />
          </mxGeometry>
        </mxCell>
        <mxCell id="1HIPmZBMqJ_y4jvaVUKr-112" value="" style="endArrow=classic;startArrow=classic;html=1;rounded=0;" edge="1" parent="1">
          <mxGeometry width="50" height="50" relative="1" as="geometry">
            <mxPoint x="1160" y="300" as="sourcePoint" />
            <mxPoint x="1070" y="360" as="targetPoint" />
          </mxGeometry>
        </mxCell>
        <mxCell id="1HIPmZBMqJ_y4jvaVUKr-113" value="" style="endArrow=classic;startArrow=classic;html=1;rounded=0;" edge="1" parent="1">
          <mxGeometry width="50" height="50" relative="1" as="geometry">
            <mxPoint x="1192" y="320" as="sourcePoint" />
            <mxPoint x="1191.5" y="360" as="targetPoint" />
          </mxGeometry>
        </mxCell>
        <mxCell id="1HIPmZBMqJ_y4jvaVUKr-114" value="&lt;span style=&quot;font-size: 10px;&quot;&gt;App Server&lt;/span&gt;" style="text;html=1;strokeColor=none;fillColor=none;align=center;verticalAlign=middle;whiteSpace=wrap;rounded=0;" vertex="1" parent="1">
          <mxGeometry x="1162" y="309.75" width="60" height="10" as="geometry" />
        </mxCell>
        <mxCell id="1HIPmZBMqJ_y4jvaVUKr-115" value="" style="endArrow=classic;startArrow=classic;html=1;rounded=0;" edge="1" parent="1">
          <mxGeometry width="50" height="50" relative="1" as="geometry">
            <mxPoint x="1020" y="320" as="sourcePoint" />
            <mxPoint x="1020.5" y="359.75" as="targetPoint" />
          </mxGeometry>
        </mxCell>
        <mxCell id="1HIPmZBMqJ_y4jvaVUKr-116" value="&lt;span style=&quot;font-size: 10px;&quot;&gt;Web Server&lt;/span&gt;" style="text;html=1;strokeColor=none;fillColor=none;align=center;verticalAlign=middle;whiteSpace=wrap;rounded=0;" vertex="1" parent="1">
          <mxGeometry x="990" y="307" width="60" height="10" as="geometry" />
        </mxCell>
        <mxCell id="1HIPmZBMqJ_y4jvaVUKr-117" value="&lt;span style=&quot;font-size: 10px;&quot;&gt;Code Base&lt;/span&gt;" style="text;html=1;strokeColor=none;fillColor=none;align=center;verticalAlign=middle;whiteSpace=wrap;rounded=0;" vertex="1" parent="1">
          <mxGeometry x="990" y="420" width="60" height="10" as="geometry" />
        </mxCell>
        <mxCell id="1HIPmZBMqJ_y4jvaVUKr-118" value="&lt;span style=&quot;font-size: 10px;&quot;&gt;Database&lt;/span&gt;" style="text;html=1;strokeColor=none;fillColor=none;align=center;verticalAlign=middle;whiteSpace=wrap;rounded=0;" vertex="1" parent="1">
          <mxGeometry x="1162" y="420" width="60" height="10" as="geometry" />
        </mxCell>
        <mxCell id="1HIPmZBMqJ_y4jvaVUKr-119" value="&lt;span style=&quot;font-size: 10px;&quot;&gt;&lt;font color=&quot;#006600&quot;&gt;replica&lt;/font&gt;&lt;/span&gt;" style="text;html=1;align=center;verticalAlign=middle;whiteSpace=wrap;rounded=0;strokeWidth=0;" vertex="1" parent="1">
          <mxGeometry x="1162" y="430" width="60" height="10" as="geometry" />
        </mxCell>
        <mxCell id="1HIPmZBMqJ_y4jvaVUKr-120" value="" style="sketch=0;aspect=fixed;pointerEvents=1;shadow=0;dashed=0;html=1;strokeColor=none;labelPosition=center;verticalLabelPosition=bottom;verticalAlign=top;align=center;fillColor=#00188D;shape=mxgraph.mscae.enterprise.performance_monitor" vertex="1" parent="1">
          <mxGeometry x="1057.5" y="520" width="85" height="61.2" as="geometry" />
        </mxCell>
        <mxCell id="1HIPmZBMqJ_y4jvaVUKr-121" value="" style="endArrow=none;html=1;rounded=0;" edge="1" parent="1" source="1HIPmZBMqJ_y4jvaVUKr-120" target="1HIPmZBMqJ_y4jvaVUKr-105">
          <mxGeometry width="50" height="50" relative="1" as="geometry">
            <mxPoint x="760" y="560" as="sourcePoint" />
            <mxPoint x="810" y="510" as="targetPoint" />
          </mxGeometry>
        </mxCell>
        <mxCell id="1HIPmZBMqJ_y4jvaVUKr-122" value="&lt;span style=&quot;font-size: 10px;&quot;&gt;Monitoring&lt;/span&gt;" style="text;html=1;strokeColor=none;fillColor=none;align=center;verticalAlign=middle;whiteSpace=wrap;rounded=0;" vertex="1" parent="1">
          <mxGeometry x="1070" y="590" width="60" height="10" as="geometry" />
        </mxCell>
        <mxCell id="1HIPmZBMqJ_y4jvaVUKr-123" value="" style="sketch=0;outlineConnect=0;fontColor=#232F3E;gradientColor=none;fillColor=#232F3D;strokeColor=none;dashed=0;verticalLabelPosition=bottom;verticalAlign=top;align=center;html=1;fontSize=12;fontStyle=0;aspect=fixed;pointerEvents=1;shape=mxgraph.aws4.generic_firewall;" vertex="1" parent="1">
          <mxGeometry x="1072" y="110" width="59.09" height="50" as="geometry" />
        </mxCell>
        <mxCell id="1HIPmZBMqJ_y4jvaVUKr-129" value="" style="endArrow=none;html=1;rounded=0;" edge="1" parent="1">
          <mxGeometry width="50" height="50" relative="1" as="geometry">
            <mxPoint x="460" y="80" as="sourcePoint" />
            <mxPoint x="1100" y="80" as="targetPoint" />
          </mxGeometry>
        </mxCell>
        <mxCell id="1HIPmZBMqJ_y4jvaVUKr-130" value="" style="endArrow=none;html=1;rounded=0;" edge="1" parent="1">
          <mxGeometry width="50" height="50" relative="1" as="geometry">
            <mxPoint x="459.7518181818182" y="110" as="sourcePoint" />
            <mxPoint x="460" y="80" as="targetPoint" />
          </mxGeometry>
        </mxCell>
        <mxCell id="1HIPmZBMqJ_y4jvaVUKr-131" value="" style="endArrow=none;html=1;rounded=0;" edge="1" parent="1">
          <mxGeometry width="50" height="50" relative="1" as="geometry">
            <mxPoint x="780" y="110" as="sourcePoint" />
            <mxPoint x="780" y="80" as="targetPoint" />
          </mxGeometry>
        </mxCell>
        <mxCell id="1HIPmZBMqJ_y4jvaVUKr-132" value="" style="endArrow=none;html=1;rounded=0;" edge="1" parent="1">
          <mxGeometry width="50" height="50" relative="1" as="geometry">
            <mxPoint x="1100" y="110" as="sourcePoint" />
            <mxPoint x="1100.2481818181818" y="80" as="targetPoint" />
          </mxGeometry>
        </mxCell>
        <mxCell id="1HIPmZBMqJ_y4jvaVUKr-133" value="" style="fillColor=#999999;verticalLabelPosition=bottom;sketch=0;html=1;strokeColor=#ffffff;verticalAlign=top;align=center;points=[[0.145,0.145,0],[0.5,0,0],[0.855,0.145,0],[1,0.5,0],[0.855,0.855,0],[0.5,1,0],[0.145,0.855,0],[0,0.5,0]];pointerEvents=1;shape=mxgraph.cisco_safe.compositeIcon;bgIcon=ellipse;resIcon=mxgraph.cisco_safe.capability.load_balancer;rotation=90;" vertex="1" parent="1">
          <mxGeometry x="754.24" y="-121.24" width="51.49" height="53" as="geometry" />
        </mxCell>
        <mxCell id="1HIPmZBMqJ_y4jvaVUKr-135" value="" style="endArrow=none;html=1;rounded=0;" edge="1" parent="1" target="1HIPmZBMqJ_y4jvaVUKr-133">
          <mxGeometry width="50" height="50" relative="1" as="geometry">
            <mxPoint x="780" y="80" as="sourcePoint" />
            <mxPoint x="790" y="90" as="targetPoint" />
          </mxGeometry>
        </mxCell>
        <mxCell id="1HIPmZBMqJ_y4jvaVUKr-136" value="" style="endArrow=none;html=1;rounded=0;" edge="1" parent="1" source="1HIPmZBMqJ_y4jvaVUKr-134" target="1HIPmZBMqJ_y4jvaVUKr-133">
          <mxGeometry width="50" height="50" relative="1" as="geometry">
            <mxPoint x="779.1958689166509" y="-182" as="sourcePoint" />
            <mxPoint x="779.7521764870403" y="-120.4849999999999" as="targetPoint" />
          </mxGeometry>
        </mxCell>
        <mxCell id="1HIPmZBMqJ_y4jvaVUKr-134" value="" style="sketch=0;outlineConnect=0;fontColor=#232F3E;gradientColor=none;fillColor=#232F3D;strokeColor=none;dashed=0;verticalLabelPosition=bottom;verticalAlign=top;align=center;html=1;fontSize=12;fontStyle=0;aspect=fixed;pointerEvents=1;shape=mxgraph.aws4.ssl_padlock;" vertex="1" parent="1">
          <mxGeometry x="760.49" y="-222" width="41.05" height="40" as="geometry" />
        </mxCell>
        <mxCell id="1HIPmZBMqJ_y4jvaVUKr-140" value="" style="sketch=0;points=[[0.015,0.015,0],[0.985,0.015,0],[0.985,0.985,0],[0.015,0.985,0],[0.25,0,0],[0.5,0,0],[0.75,0,0],[1,0.25,0],[1,0.5,0],[1,0.75,0],[0.75,1,0],[0.5,1,0],[0.25,1,0],[0,0.75,0],[0,0.5,0],[0,0.25,0]];verticalLabelPosition=bottom;html=1;verticalAlign=top;aspect=fixed;align=center;pointerEvents=1;shape=mxgraph.cisco19.dns_server;fillColor=#000000;strokeColor=none;" vertex="1" parent="1">
          <mxGeometry x="990" y="-402" width="42.35" height="77" as="geometry" />
        </mxCell>
        <mxCell id="1HIPmZBMqJ_y4jvaVUKr-141" value="" style="endArrow=classic;html=1;rounded=0;" edge="1" parent="1">
          <mxGeometry width="50" height="50" relative="1" as="geometry">
            <mxPoint x="990" y="-355.54579467549036" as="sourcePoint" />
            <mxPoint x="818.6447616392529" y="-355.91638062752384" as="targetPoint" />
          </mxGeometry>
        </mxCell>
        <mxCell id="1HIPmZBMqJ_y4jvaVUKr-142" value="" style="endArrow=classic;html=1;rounded=0;" edge="1" parent="1">
          <mxGeometry width="50" height="50" relative="1" as="geometry">
            <mxPoint x="818.6447616392529" y="-375.91638062752384" as="sourcePoint" />
            <mxPoint x="990" y="-375.54579467549036" as="targetPoint" />
          </mxGeometry>
        </mxCell>
        <mxCell id="1HIPmZBMqJ_y4jvaVUKr-143" value="&lt;h4&gt;QUERY&lt;/h4&gt;" style="text;html=1;strokeColor=none;fillColor=none;align=center;verticalAlign=middle;whiteSpace=wrap;rounded=0;" vertex="1" parent="1">
          <mxGeometry x="850" y="-412" width="110" height="20" as="geometry" />
        </mxCell>
        <mxCell id="1HIPmZBMqJ_y4jvaVUKr-144" value="www.foobar.com" style="text;html=1;strokeColor=none;fillColor=none;align=center;verticalAlign=middle;whiteSpace=wrap;rounded=0;" vertex="1" parent="1">
          <mxGeometry x="876" y="-399" width="60" height="20" as="geometry" />
        </mxCell>
        <mxCell id="1HIPmZBMqJ_y4jvaVUKr-145" value="&lt;h4&gt;QUERY RESPONSE&lt;/h4&gt;" style="text;html=1;strokeColor=none;fillColor=none;align=center;verticalAlign=middle;whiteSpace=wrap;rounded=0;" vertex="1" parent="1">
          <mxGeometry x="848" y="-351" width="120" height="20" as="geometry" />
        </mxCell>
        <mxCell id="1HIPmZBMqJ_y4jvaVUKr-146" value="8.8.8.8" style="text;html=1;strokeColor=none;fillColor=none;align=center;verticalAlign=middle;whiteSpace=wrap;rounded=0;" vertex="1" parent="1">
          <mxGeometry x="876" y="-337" width="60" height="20" as="geometry" />
        </mxCell>
        <mxCell id="1HIPmZBMqJ_y4jvaVUKr-147" value="" style="endArrow=none;html=1;rounded=0;" edge="1" parent="1" source="1HIPmZBMqJ_y4jvaVUKr-134" target="1HIPmZBMqJ_y4jvaVUKr-1">
          <mxGeometry width="50" height="50" relative="1" as="geometry">
            <mxPoint x="750" y="-222" as="sourcePoint" />
            <mxPoint x="800" y="-272" as="targetPoint" />
          </mxGeometry>
        </mxCell>
        <mxCell id="1HIPmZBMqJ_y4jvaVUKr-148" value="Load Balancer" style="text;html=1;strokeColor=none;fillColor=none;align=center;verticalAlign=middle;whiteSpace=wrap;rounded=0;" vertex="1" parent="1">
          <mxGeometry x="810" y="-109.36" width="60" height="29.24" as="geometry" />
        </mxCell>
        <mxCell id="1HIPmZBMqJ_y4jvaVUKr-149" value="SSL Certificate" style="text;html=1;strokeColor=none;fillColor=none;align=center;verticalAlign=middle;whiteSpace=wrap;rounded=0;" vertex="1" parent="1">
          <mxGeometry x="808.55" y="-216.62" width="60" height="29.24" as="geometry" />
        </mxCell>
        <mxCell id="1HIPmZBMqJ_y4jvaVUKr-150" value="" style="endArrow=classic;html=1;rounded=0;" edge="1" parent="1">
          <mxGeometry width="50" height="50" relative="1" as="geometry">
            <mxPoint x="760" y="-312" as="sourcePoint" />
            <mxPoint x="760" y="-242" as="targetPoint" />
          </mxGeometry>
        </mxCell>
        <mxCell id="1HIPmZBMqJ_y4jvaVUKr-151" value="&lt;h4&gt;HTTPS REQUEST&lt;/h4&gt;" style="text;html=1;strokeColor=none;fillColor=none;align=center;verticalAlign=middle;whiteSpace=wrap;rounded=0;" vertex="1" parent="1">
          <mxGeometry x="642" y="-302" width="110" height="20" as="geometry" />
        </mxCell>
        <mxCell id="1HIPmZBMqJ_y4jvaVUKr-152" value="8.8.8.8" style="text;html=1;strokeColor=none;fillColor=none;align=center;verticalAlign=middle;whiteSpace=wrap;rounded=0;" vertex="1" parent="1">
          <mxGeometry x="667" y="-287" width="60" height="20" as="geometry" />
        </mxCell>
        <mxCell id="1HIPmZBMqJ_y4jvaVUKr-153" value="" style="endArrow=classic;html=1;rounded=0;" edge="1" parent="1">
          <mxGeometry width="50" height="50" relative="1" as="geometry">
            <mxPoint x="800" y="40" as="sourcePoint" />
            <mxPoint x="800" y="-40" as="targetPoint" />
          </mxGeometry>
        </mxCell>
        <mxCell id="1HIPmZBMqJ_y4jvaVUKr-154" value="&lt;h4&gt;HTTPS RESPONSE&lt;/h4&gt;" style="text;html=1;strokeColor=none;fillColor=none;align=center;verticalAlign=middle;whiteSpace=wrap;rounded=0;" vertex="1" parent="1">
          <mxGeometry x="807" y="-16" width="113" height="20" as="geometry" />
        </mxCell>
        <mxCell id="1HIPmZBMqJ_y4jvaVUKr-155" value="index.html" style="text;html=1;strokeColor=none;fillColor=none;align=center;verticalAlign=middle;whiteSpace=wrap;rounded=0;" vertex="1" parent="1">
          <mxGeometry x="832" y="-1" width="60" height="20" as="geometry" />
        </mxCell>
      </root>
    </mxGraphModel>
  </diagram>
</mxfile>
